<?xml version="1.0" standalone="no"?><!DOCTYPE svg PUBLIC "-//W3C//DTD SVG 1.1//EN" "http://www.w3.org/Graphics/SVG/1.1/DTD/svg11.dtd"><svg t="1650850430318" class="icon" viewBox="0 0 1024 1024" version="1.1" xmlns="http://www.w3.org/2000/svg" p-id="2925" xmlns:xlink="http://www.w3.org/1999/xlink" width="128" height="128"><defs><style type="text/css">@font-face { font-family: feedback-iconfont; src: url("//at.alicdn.com/t/font_1031158_u69w8yhxdu.woff2?t=1630033759944") format("woff2"), url("//at.alicdn.com/t/font_1031158_u69w8yhxdu.woff?t=1630033759944") format("woff"), url("//at.alicdn.com/t/font_1031158_u69w8yhxdu.ttf?t=1630033759944") format("truetype"); }
</style></defs><path d="M819.2 213.333333v42.666667h-597.333333V213.333333h597.333333m0-85.333333h-597.333333a85.333333 85.333333 0 0 0-85.333334 85.333333v128h768V213.333333a85.333333 85.333333 0 0 0-85.333333-85.333333zM307.2 469.333333v341.333334h-85.333333v-341.333334h85.333333m85.333333-85.333333h-256v426.666667a85.333333 85.333333 0 0 0 85.333334 85.333333h170.666666V384zM819.2 469.333333v341.333334h-298.666667v-341.333334h298.666667m85.333333-85.333333h-469.333333v512h384a85.333333 85.333333 0 0 0 85.333333-85.333333V384z" fill="#666666" p-id="2926"></path></svg>