<svg t="1650074055139" class="icon" viewBox="0 0 1024 1024" version="1.1" xmlns="http://www.w3.org/2000/svg" p-id="5046" width="128" height="128"><path d="M583.552 569.408c-6.128-4.896-9.664-21.024-9.664-26.4 0-23.616 5.92-31.728 5.92-31.728-0.128 0.08 96-51.904 94.112-216.272-2.624-65.648-43.04-182.64-167.6-182.64h-7.072c-130.336 0-164.976 117.008-167.6 182.64-1.76 154.736 94.08 216.272 94.08 216.272s11.632 13.28 11.632 36.864c0 5.376-9.232 16.368-15.36 21.248-53.488 42.768-246.112 85.872-258.592 177.984-9.664 39.072-66.848 101.072 123.296 126 52.384 6.88 123.52 10.928 219.616 10.928 440.96 0 349.808-85.44 337.408-135.52-12.48-92.08-206.656-136.624-260.16-179.376m423.456 142.256c-10.192-74.112-155.984-109.952-199.6-144.352-5.008-3.936-7.888-16.912-7.888-21.216 0-19.008 4.832-25.552 4.832-25.552s78.16-49.504 76.704-174.032c-2.144-52.8-35.072-146.944-136.592-146.944h-5.76c-21.888 0-40.32 4.16-56 10.96 21.712 72.72 47.84 206.144-62 295.568-43.088 64.224 100.432 101.888 78.128 91.872 129.856 58.352 164.8 103.136 174.304 149.408 7.952 38.656 12.464 62.272 12.464 62.272s97.28-14.848 122.448-33.712c1.12-20.624 4.32-42.848-1.04-64.272m-657.872-129.28c8.368-3.168 18.56-6.064 30.624-13.648 17.6-11.072 31.2-33.888-1.568-61.84-108.32-156.064-68.88-259.76-52.416-298.832a129.28 129.28 0 0 0-47.28-8.496h-5.616c-103.664 0-131.2 94.24-133.312 147.136-1.376 124.672 74.832 174.24 74.832 174.24s4.752 6.56 4.752 25.568c0 4.336-2.832 17.312-7.712 21.248-42.528 34.448-184.528 70.368-194.448 144.544-5.248 21.44-2.128 43.744-1.088 64.368 23.232 17.856 97.68 32.976 97.68 32.976s6.176-18.768 12.448-49.808c9.28-45.872 71.344-120.096 223.104-177.44" p-id="5047"></path></svg>
