<?xml version="1.0" standalone="no"?><!DOCTYPE svg PUBLIC "-//W3C//DTD SVG 1.1//EN" "http://www.w3.org/Graphics/SVG/1.1/DTD/svg11.dtd"><svg class="icon" width="128px" height="128.00px" viewBox="0 0 1024 1024" version="1.1" xmlns="http://www.w3.org/2000/svg"><path fill="#bfbfbf" d="M891.8 430.4V224.2c0-52.8-43.2-95.9-95.9-95.9h-60v80c0 35.2-28.8 64-64 64H352.1c-35.2 0-64-28.8-64-64v-80h-60c-52.8 0-95.9 43.2-95.9 95.9v639.6c0 52.8 43.2 95.9 95.9 95.9h567.6c52.8 0 95.9-43.2 95.9-95.9V633.5l0.2-203.1zM735.9 742c0 17.6-14.4 32-32 32H320.1c-17.6 0-32-14.4-32-32s14.4-32 32-32h383.7c17.7 0 32.1 14.4 32.1 32z m0-150c0 17.6-14.4 32-32 32H320.1c-17.6 0-32-14.4-32-32s14.4-32 32-32h383.7c17.7 0 32.1 14.4 32.1 32z m0-150c0 17.6-14.4 32-32 32H320.1c-17.6 0-32-14.4-32-32s14.4-32 32-32h383.7c17.7 0 32.1 14.4 32.1 32z"  /><path fill="#bfbfbf" d="M368.1 224.2h287.8c17.6 0 32-14.4 32-32v-64h-48v-32c0-17.6-14.4-32-32-32H416.1c-17.6 0-32 14.4-32 32v32h-48v64c0 17.6 14.4 32 32 32z"  /></svg>